<svg xmlns="http://www.w3.org/2000/svg" x="0" y="0" viewBox="0 0 720.9 114.8" xml:space="preserve">
<style>.svg-orange{fill:#ee5723}.svg-grey{fill:#323648}</style>
<path class="svg-grey" d="M180 84.1V45.7c0-1.1-.9-2-2-2h-4.9c-1.1 0-2 .9-2 2v1.8c-3.9-2.9-8.3-4.3-13-4.3-6.4 0-12.5 2.7-16.7 7.5s-6.1 10.9-5.3 17.3c1.4 10.9 10.9 19.3 22 19.3h.8c4.6-.2 8.9-1.7 12.6-4.6.3.6.8 1.1 1.5 1.4l4.4 1.9c.6.3 1.3.2 1.8-.2s.8-1 .8-1.7zm-8.9-19c0 7.4-5.7 13.1-13.1 13.1-7.4 0-13.1-5.8-13.1-13.1S150.7 52 158 52c7.4.1 13.1 5.8 13.1 13.1zm34.7 22.2h.4c8-.1 15.2-4.4 18.7-11.1.3-.5.3-1.1.1-1.6s-.7-1-1.2-1.1l-4.7-1.6c-.9-.3-1.9.1-2.3.9-2.3 4.1-8 6.4-13.5 5.4-6.3-1.1-10.7-6.7-10.6-13.2.2-7.2 5.9-12.8 13.1-12.8 4.1 0 7.8 1.7 10.1 4.6.7.8 1.9 1 2.7.3l3.8-2.9c.4-.3.7-.8.8-1.4 0-.5-.1-1.1-.5-1.5-4.8-5.2-10.8-8.1-16.9-8.1-6.5 0-12.6 2.8-16.8 7.7-4.2 4.8-6 11.3-5 17.7 1.5 10.7 10.9 18.7 21.8 18.7zm43.1 0h.4c8-.1 15.2-4.4 18.7-11.1.3-.5.3-1.1.1-1.6s-.7-1-1.2-1.1l-4.7-1.6c-.9-.3-1.9.1-2.3.9-2.3 4.1-8 6.4-13.5 5.4-6.3-1.1-10.7-6.7-10.6-13.2.2-7.2 5.9-12.8 13.1-12.8 4.1 0 7.8 1.7 10.1 4.6.6.8 1.9 1 2.7.3l3.8-2.9c.4-.3.7-.8.8-1.4 0-.5-.1-1.1-.5-1.5-4.8-5.2-10.8-8.1-16.9-8.1-6.5 0-12.6 2.8-16.8 7.7-4.2 4.8-6 11.3-5 17.7 1.5 10.7 10.9 18.7 21.8 18.7zm43-44.1c-12.2 0-22.1 9.9-22.1 22 0 5.9 2.3 11.5 6.4 15.7 4.2 4.2 9.7 6.5 15.7 6.5 12.1 0 22-9.9 22-22.1-.1-12.3-9.9-22.1-22-22.1zm13 21.9c0 7.4-5.7 13.1-13.1 13.1-7.4 0-13.1-5.8-13.1-13.1S284.5 52 291.8 52c7.4.1 13.1 5.8 13.1 13.1zm59.9-21.9c-5.6 0-10.8 2.3-14.3 6.3-3.6-4-8.8-6.3-14.4-6.3-4 0-7.5 1-10.5 3.1-.3.2-.6.2-.9.1l-4.5-1.9c-.6-.3-1.3-.2-1.9.2-.5.4-.9 1-.9 1.6v38.3c0 1.1.9 2 2 2h4.9c1.1 0 2-.9 2-2V61.3c0-3 .8-5.4 2.3-6.9 1.6-1.6 4.2-2.4 7.6-2.4 5.4 0 9.8 4.4 9.8 9.9v22.8c0 1.1.9 2 2 2h4.8c1.1 0 2-.9 2-2V62.9c0-4.1 2.1-7.9 5.6-9.7 3-1.6 6.4-1.5 9.3.2 3.1 1.8 5 5.1 5 8.5v22.8c0 1.1.9 2 2 2h4.9c1.1 0 2-.9 2-2V61c.1-9.7-8.5-17.8-18.8-17.8zm69.9 0c-5.6 0-10.8 2.3-14.3 6.3-3.6-4-8.8-6.3-14.4-6.3-4 0-7.5 1-10.5 3.1-.3.2-.6.2-.9.1l-4.5-1.9c-.6-.3-1.3-.2-1.9.2-.5.4-.9 1-.9 1.6v38.3c0 1.1.9 2 2 2h4.9c1.1 0 2-.9 2-2V61.3c0-3 .8-5.4 2.3-6.9 1.6-1.6 4.2-2.4 7.6-2.4 5.4 0 9.8 4.4 9.8 9.9v22.8c0 1.1.9 2 2 2h4.8c1.1 0 2-.9 2-2V62.9c0-4.1 2.1-7.9 5.6-9.7 3-1.6 6.4-1.5 9.3.2 3.1 1.8 5 5.1 5 8.5v22.8c0 1.1.9 2 2 2h4.9c1.1 0 2-.9 2-2V61c0-9.7-8.6-17.8-18.8-17.8zm44.6 0c-12.2 0-22.1 9.9-22.1 22 0 5.9 2.3 11.5 6.4 15.7 4.2 4.2 9.7 6.5 15.7 6.5 12.1 0 22-9.9 22-22.1 0-12.3-9.9-22.1-22-22.1zm13.1 21.9c0 7.4-5.7 13.1-13.1 13.1-7.4 0-13.1-5.8-13.1-13.1S472 52 479.3 52c7.3.1 13.1 5.8 13.1 13.1zM547 27.4h-4.9c-1.1 0-2 .9-2 2v18.1c-3.7-2.8-8.3-4.3-13.1-4.3-6.2 0-12.2 2.6-16.4 7.2-4.2 4.6-6.2 10.5-5.7 16.8 1 11.3 10.7 20.1 22 20.1 4.9 0 9.6-1.6 13.4-4.6.3.6.8 1.1 1.4 1.3l4.3 1.9c.6.3 1.3.2 1.9-.2.6-.4.9-1 .9-1.7V29.3c.2-1-.7-1.9-1.8-1.9zm-6.9 37.7c0 7.4-5.7 13.1-13.1 13.1-7.4 0-13.1-5.8-13.1-13.1S519.7 52 527 52c7.4.1 13.1 5.8 13.1 13.1zm47.8-17.6c-3.9-2.8-8.4-4.3-13.1-4.3-6.3 0-12.3 2.7-16.5 7.3-4.2 4.7-6.1 10.7-5.5 17.1 1.2 11.3 10.6 19.7 22 19.7h.7c4.6-.1 9-1.7 12.7-4.6.3.6.8 1.1 1.5 1.4L594 86c.5.2 1.1.3 1.6 0 .8-.3 1.2-1 1.2-1.8V44.7c0-.5-.4-1-1-1h-6.9c-.5 0-1 .4-1 1v2.8zm0 17.6c0 7.4-5.7 13.1-13.1 13.1s-13.1-5.8-13.1-13.1S567.5 52 574.8 52c7.3.1 13.1 5.8 13.1 13.1zm35.2 19.5c0 1.1.9 2 2 2h4.9c1.1 0 2-.9 2-2V45.8c0-1.1-.9-2-2-2h-4.9c-1.1 0-2 .9-2 2v38.8zm4.5-57.2c-3.4 0-6.1 2.6-6.1 5.9 0 3.4 2.7 6.1 6.1 6.1 3.2 0 6-2.8 6-6.1-.1-3-3-5.9-6-5.9zm30.1 15.8c-12.2 0-22.1 9.9-22.1 22 0 5.9 2.3 11.5 6.4 15.7 4.2 4.2 9.7 6.5 15.7 6.5 12.1 0 22-9.9 22-22.1 0-12.3-9.9-22.1-22-22.1zm0 35.1c-7.4 0-13.1-5.8-13.1-13.1s5.8-13.1 13.1-13.1 13.1 5.7 13.1 13.1c0 7.3-5.8 13.1-13.1 13.1zM702 43.2c-4 0-7.5 1-10.5 3.1-.3.2-.6.2-.9.1l-4.5-1.9c-.6-.3-1.3-.2-1.9.2-.5.4-.9 1-.9 1.6v38.3c0 1.1.9 2 2 2h4.9c1.1 0 2-.9 2-2V61.4c0-3.1.8-5.4 2.4-7s4.2-2.5 7.5-2.5c5.4 0 9.8 4.4 9.8 9.9v22.8c0 1.1.9 2 2 2h4.9c1.1 0 2-.9 2-2V60.9c.1-9.6-8.6-17.7-18.8-17.7zm-84.8 35.9h-1.4c-4.9 0-6.8-2.1-6.8-6.4V51.5h8c1.1 0 2-.9 2-2v-3.6c0-1.1-.9-2-2-2h-8V33.4c0-1.1-.9-2-2-2h-4.7c-1.1 0-2 .9-2 2V73c0 9.1 4.5 13.6 12.8 13.6.9 0 2.9-.1 4.4-.2 1.1-.1 1.9-.9 1.9-2V81c0-1.3-.8-2-2.2-1.9z"/>
<path class="svg-orange" d="M81 13.7H67.9c-4.8 0-8.7-4.2-8.7-9.3V1.9c0-1.1-.9-1.9-1.9-1.9h-2.5C35.5 0 21 4.5 11.8 13.3 4.8 20 .9 29.1.1 40.4v.6c0 .4 0 .9-.1 1.3V85c0 16.4 12.8 29.8 28.6 29.8h52.5c15.8 0 28.6-13.4 28.6-29.8V43.5c0-16.5-12.9-29.8-28.7-29.8zm19.9 29.8V85c0 11.6-8.9 21-19.8 21H28.6c-10.9 0-19.8-9.4-19.8-21V41.1c.7-10.2 4.6-18.1 11.6-23.4 7-5.4 17.2-8.3 30.4-8.8h.1V9c2 8 9 13.6 17 13.6H81c11-.1 19.9 9.3 19.9 20.9z"/>
<path class="svg-orange" d="M73.4 68.8c-.6 0-1.2.4-1.4 1-.9 3.7-3 6.9-5.9 9.3-3.3 2.7-7.6 4.1-11.9 4-8.1-.2-14.9-5.7-16.8-13.3-.2-.6-.7-1-1.3-1h-5.8c-.9 0-1.6.8-1.4 1.7C31.3 82.7 42 91.8 54.7 91.8c1.3 0 2.7-.1 4.1-.3 11-1.6 19.7-10.2 21.9-21 .2-.9-.5-1.7-1.4-1.7h-5.9z"/>
<path class="svg-grey" d="M637.3 109.9c-1.5 0-2.5 1.1-2.5 2.4 0 1.4 1.1 2.4 2.5 2.4 1.5 0 2.5-1.1 2.5-2.4 0-1.3-1-2.4-2.5-2.4zm13.3-10.5c1.6 0 3 .8 3.7 2.3.2.5.6.8 1.1.8h2.7c.7 0 1-.4.8-1.1-1.2-3.7-4.3-5.8-8.4-5.8-5.5 0-9.4 4.1-9.4 9.6 0 5.4 4 9.6 9.4 9.6 4 0 7.1-2.1 8.4-5.8.2-.6-.1-1.1-.8-1.1h-2.7c-.5 0-.9.3-1.1.8-.7 1.5-2.1 2.3-3.7 2.3-2.9 0-5.1-2.5-5.1-5.8s2.1-5.8 5.1-5.8zm19.9-3.8c-5.7 0-10 4.2-10 9.6s4.3 9.6 10 9.6 10-4.2 10-9.6-4.4-9.6-10-9.6zm0 15.4c-3.1 0-5.6-2.5-5.6-5.8s2.4-5.8 5.6-5.8c3.1 0 5.6 2.5 5.6 5.8s-2.5 5.8-5.6 5.8zm13.5-1.1c-1.5 0-2.5 1.1-2.5 2.4 0 1.4 1.1 2.4 2.5 2.4 1.5 0 2.5-1.1 2.5-2.4 0-1.3-1-2.4-2.5-2.4zm18.1-14h-2.5c-.6 0-1 .3-1 1v11.4c0 1.6-1.2 2.7-2.7 2.7s-2.7-1.1-2.7-2.7V96.9c0-.6-.3-1-1-1h-2.5c-.6 0-1 .3-1 1v11.4c0 3.8 3.2 6.4 7.1 6.4 4 0 7.1-2.7 7.1-6.4V96.9c.2-.6-.1-1-.8-1zm18.6 17.4l-4.1-8c2.1-1.5 3.1-4.2 3.3-8.4 0-.6-.3-1-1-1h-2.5c-.6 0-.9.3-1 1-.1 4.4-1.4 5.9-4.1 5.9h-.9v-6c0-.6-.3-1-1-1h-2.5c-.6 0-1 .3-1 1v16.6c0 .6.3 1 1 1h2.5c.6 0 1-.3 1-1v-6.9h2l3.7 7.2c.2.5.6.7 1.1.7h2.7c.9 0 1.2-.4.8-1.1z"/>
</svg>